<?xml version="1.0" encoding="utf-8"?>
<!-- Generator: Adobe Illustrator 27.9.6, SVG Export Plug-In . SVG Version: 9.03 Build 54986)  -->
<svg version="1.1" id="Layer_2_00000171696843574950153750000011444081717827492750_"
	 xmlns="http://www.w3.org/2000/svg" xmlns:xlink="http://www.w3.org/1999/xlink" x="0px" y="0px" viewBox="0 0 454 227"
	 style="enable-background:new 0 0 454 227;" xml:space="preserve">
<style type="text/css">
	.st0{display:none;}
</style>
<g>
	<path d="M73.3,103.4h9.4v3.7h-2.2v7.4c-1.4,0.4-2.7,0.7-4,0.9c-1.3,0.2-2.6,0.3-4,0.3c-2,0-3.8-0.3-5.4-0.9s-2.9-1.4-4-2.4
		c-1.1-1.1-1.9-2.3-2.5-3.8s-0.9-3.2-0.9-5c0-1.7,0.3-3.2,0.8-4.8c0.5-1.5,1.3-2.8,2.4-4c1.1-1.1,2.4-2.1,4.1-2.7
		c1.6-0.7,3.6-1,5.8-1c1,0,1.9,0,2.6,0.1c0.8,0.1,1.5,0.2,2.1,0.3c0.6,0.1,1.2,0.3,1.8,0.5c0.5,0.2,1,0.3,1.5,0.5V99h-4.3v-3.9
		c-0.6-0.2-1.2-0.3-1.8-0.4c-0.6-0.1-1.1-0.1-1.6-0.1c-1.5,0-2.8,0.2-3.8,0.7s-1.9,1.1-2.5,1.9s-1.1,1.7-1.4,2.7S65,102,65,103.1
		c0,0.9,0.1,1.9,0.3,2.9c0.2,1,0.6,1.9,1.2,2.8s1.4,1.6,2.5,2.1c1,0.6,2.4,0.8,4,0.8c0.5,0,1,0,1.3-0.1c0.4,0,0.8-0.1,1.2-0.2V107
		H73v-3.6H73.3z"/>
	<path d="M95.9,103.8c0-1.3-0.3-2.2-0.9-2.7s-1.4-0.7-2.5-0.7c-0.3,0-0.8,0-1.4,0.1s-1.1,0.2-1.5,0.4v2.4h-4.1v-4.5
		c0.3-0.2,0.7-0.3,1.2-0.6c0.5-0.2,1-0.4,1.7-0.6s1.3-0.3,2-0.5C91,97,91.8,97,92.6,97c1.2,0,2.3,0.1,3.2,0.3c1,0.2,1.8,0.6,2.5,1.1
		s1.2,1.2,1.6,2.1s0.5,2,0.5,3.3c0,1.5,0,2.8-0.1,4.1c0,1.3-0.1,2.5-0.1,3.8h2v3.5h-6v-1.1c0-0.6,0-1.1,0.1-1.4c0-0.4,0.1-0.7,0.2-1
		h-0.1c-0.6,1.4-1.3,2.4-2.2,3c-0.9,0.6-2.1,1-3.6,1c-1,0-1.9-0.1-2.6-0.4c-0.8-0.3-1.4-0.6-1.9-1.1s-0.9-1-1.1-1.7
		c-0.2-0.6-0.4-1.3-0.4-2c0-0.6,0.1-1.2,0.3-1.8c0.2-0.5,0.5-1,0.8-1.4s0.7-0.8,1.1-1c0.4-0.3,0.9-0.5,1.4-0.7
		c0.9-0.3,2-0.5,3.2-0.6s2.7-0.2,4.5-0.2V103.8z M94.5,107.6c-1,0-1.8,0.1-2.4,0.2s-1.2,0.3-1.6,0.4c-0.4,0.2-0.7,0.4-0.9,0.7
		c-0.2,0.3-0.3,0.6-0.3,1c0,0.5,0.2,1,0.6,1.5s1.1,0.7,2,0.7c0.5,0,0.9-0.1,1.4-0.2s0.9-0.4,1.2-0.8c0.4-0.4,0.7-0.8,0.9-1.4
		c0.2-0.6,0.3-1.3,0.3-2.1C95.7,107.6,94.5,107.6,94.5,107.6z"/>
	<path d="M106.4,92.5h-2.7V89h7.5v22.7h2v3.5h-8.8v-3.5h1.9L106.4,92.5L106.4,92.5z"/>
	<path d="M136.3,97.4h8.5v3.5h-1.6l-6.2,14.4h-5l-2.4-6.2c-0.1-0.2-0.2-0.5-0.2-0.7c-0.1-0.2-0.1-0.5-0.2-0.8h-0.1
		c-0.1,0.6-0.2,1.1-0.4,1.5l-2.7,6.2h-5l-6-14.4h-1.7v-3.5h8.5v3.5h-1.7c0.2,0.3,0.3,0.5,0.4,0.9c0.1,0.3,0.3,0.7,0.4,1.1l2.2,6
		c0.1,0.3,0.2,0.7,0.3,1s0.2,0.7,0.2,1.1h0.1c0.1-0.4,0.2-0.7,0.3-1s0.3-0.7,0.4-1l2.7-5.9l-0.8-2h-1.9v-3.5h8.7v3.5h-1.8
		c0.2,0.3,0.3,0.5,0.4,0.9c0.1,0.3,0.3,0.7,0.4,1.1l2.2,6c0.2,0.4,0.3,0.8,0.3,1c0.1,0.3,0.1,0.6,0.2,1h0.1c0.1-0.4,0.1-0.7,0.2-1
		c0.1-0.3,0.2-0.6,0.3-1l2.1-6c0.1-0.4,0.3-0.8,0.4-1.1c0.1-0.3,0.3-0.6,0.4-0.9h-2.4v-3.7H136.3z"/>
	<path d="M157,103.8c0-1.3-0.3-2.2-0.9-2.7c-0.6-0.5-1.4-0.7-2.5-0.7c-0.3,0-0.8,0-1.4,0.1c-0.6,0.1-1.1,0.2-1.5,0.4v2.4h-4.1v-4.5
		c0.3-0.2,0.7-0.3,1.2-0.6c0.5-0.2,1-0.4,1.7-0.6s1.3-0.3,2-0.5c0.7-0.1,1.5-0.2,2.3-0.2c1.2,0,2.3,0.1,3.2,0.3
		c1,0.2,1.8,0.6,2.5,1.1s1.2,1.2,1.6,2.1c0.4,0.9,0.5,2,0.5,3.3c0,1.5,0,2.8-0.1,4.1c0,1.3-0.1,2.5-0.1,3.8h2v3.5h-6V114
		c0-0.6,0-1.1,0.1-1.4c0-0.4,0.1-0.7,0.2-1h-0.1c-0.6,1.4-1.3,2.4-2.2,3s-2.1,1-3.6,1c-1,0-1.9-0.1-2.6-0.4
		c-0.8-0.3-1.4-0.6-1.9-1.1s-0.9-1-1.1-1.7c-0.2-0.6-0.4-1.3-0.4-2c0-0.6,0.1-1.2,0.3-1.8c0.2-0.5,0.5-1,0.8-1.4s0.7-0.8,1.1-1
		c0.4-0.3,0.9-0.5,1.4-0.7c0.9-0.3,2-0.5,3.2-0.6s2.7-0.2,4.5-0.2L157,103.8L157,103.8z M155.6,107.6c-1,0-1.8,0.1-2.4,0.2
		c-0.6,0.1-1.2,0.3-1.6,0.4c-0.4,0.2-0.7,0.4-0.9,0.7c-0.2,0.3-0.3,0.6-0.3,1c0,0.5,0.2,1,0.6,1.5c0.4,0.5,1.1,0.7,2,0.7
		c0.5,0,0.9-0.1,1.4-0.2s0.9-0.4,1.2-0.8c0.4-0.4,0.7-0.8,0.9-1.4s0.3-1.3,0.3-2.1C156.8,107.6,155.6,107.6,155.6,107.6z"/>
	<path d="M175.7,97.4h8v3.5h-1.6l-5.5,14.7c-0.6,1.7-1.3,3.1-1.9,4.2c-0.6,1.1-1.3,2-1.9,2.6s-1.5,1.1-2.3,1.3
		c-0.8,0.2-1.8,0.4-2.9,0.4c-0.4,0-0.8,0-1.2-0.1c-0.5-0.1-0.9-0.2-1.4-0.3V120c0.5,0.1,0.9,0.2,1.4,0.3c0.5,0.1,0.9,0.1,1.2,0.1
		c0.5,0,0.9-0.1,1.3-0.2s0.7-0.3,1.1-0.6c0.3-0.3,0.7-0.7,1-1.3c0.3-0.5,0.7-1.2,1.1-2l-6.8-15.6h-1.6v-3.5h8.9v3.5h-1.8
		c0.1,0.2,0.3,0.4,0.4,0.6c0.1,0.2,0.2,0.4,0.3,0.6l2.3,6.1c0.2,0.5,0.3,1,0.5,1.7c0.1,0.6,0.3,1.2,0.3,1.7h0.1
		c0.1-0.5,0.2-1.1,0.3-1.7s0.3-1.2,0.5-1.7l2.1-6.1c0.1-0.2,0.2-0.4,0.3-0.6s0.2-0.4,0.4-0.6h-2.2v-3.3H175.7z"/>
	<path d="M208.5,94.8h-5.6v6.6h6.6v3.7h-6.6v6.6h2.7v3.5h-9.8v-3.5h2.1V94.8h-2.6v-3.5h17.3l0.2,7h-4.1L208.5,94.8z"/>
	<path d="M216.4,100.8h-2.3v-3.5h7.1v14.4h2v3.5h-8.8v-3.5h1.9v-10.9H216.4z M215.4,91.4c0-0.9,0.3-1.6,0.9-2.1
		c0.6-0.5,1.4-0.8,2.4-0.8s1.8,0.3,2.4,0.8c0.6,0.5,0.9,1.3,0.9,2.1s-0.3,1.6-0.9,2.1c-0.6,0.5-1.4,0.8-2.4,0.8s-1.8-0.3-2.4-0.8
		S215.4,92.3,215.4,91.4z"/>
	<path d="M227.4,92.5h-2.7V89h7.5v22.7h2v3.5h-8.8v-3.5h1.9V92.5H227.4z"/>
	<path d="M260,111.7h1.7v-7.3c0-1.2-0.3-2.1-0.9-2.6s-1.3-0.8-2.2-0.8c-1.2,0-2.1,0.4-2.8,1.3s-1,2-1,3.4v5.9h2v3.5h-8.6v-3.5h1.7
		v-7.3c0-1.2-0.3-2.1-0.9-2.6c-0.6-0.5-1.3-0.8-2.2-0.8c-0.6,0-1.2,0.1-1.7,0.4c-0.5,0.2-0.9,0.6-1.2,1s-0.6,0.9-0.7,1.5
		c-0.2,0.6-0.2,1.2-0.2,1.9v5.9h2v3.5h-8.8v-3.5h1.9v-10.9h-2.3v-3.5h7c0,0.6,0,1.2,0,1.8s-0.1,1.2-0.2,1.8h0.1
		c0.5-1.3,1.3-2.3,2.3-3c1.1-0.7,2.3-1,3.8-1s2.7,0.3,3.5,1c0.9,0.7,1.5,1.7,1.7,3h0.1c0.4-1.3,1.1-2.2,2.1-3s2.3-1.1,3.8-1.1
		c2.1,0,3.7,0.6,4.7,1.9s1.5,2.9,1.5,5.1v7.8h2v3.5H260V111.7z"/>
	<path d="M294.3,94.8h-5.6v6.6h6.6v3.7h-6.6v6.6h2.7v3.5h-9.8v-3.5h2.1V94.8h-2.6v-3.5h17.3l0.2,7h-4.1L294.3,94.8z"/>
	<path d="M302.5,92.5h-2.7V89h7.5v22.7h2v3.5h-8.8v-3.5h1.9V92.5H302.5z"/>
	<path d="M316.5,107.4c0.1,1.4,0.6,2.6,1.6,3.4s2.4,1.2,4,1.2c1.1,0,2.1-0.1,3-0.3c0.9-0.2,1.8-0.5,2.8-0.9l-0.2,3.8
		c-1.1,0.4-2.2,0.7-3.2,0.9c-1,0.2-2.1,0.3-3.4,0.3c-1.7,0-3.2-0.3-4.4-0.8c-1.2-0.5-2.2-1.2-3-2s-1.4-1.8-1.8-3s-0.6-2.3-0.6-3.5
		c0-1.4,0.2-2.7,0.6-3.8s1-2.2,1.8-3s1.7-1.5,2.8-1.9c1.1-0.5,2.4-0.7,3.8-0.7c1.5,0,2.8,0.3,3.9,0.8s2,1.3,2.7,2.2
		c0.7,0.9,1.2,2,1.5,3.3s0.5,2.6,0.5,4.1L316.5,107.4L316.5,107.4z M323.7,104.1c0-1.2-0.3-2.2-1-2.8c-0.6-0.7-1.5-1-2.6-1
		s-1.9,0.3-2.6,1c-0.6,0.7-1,1.6-1.1,2.8H323.7z"/>
	<path d="M342.5,103.8c0-1.3-0.3-2.2-0.9-2.7s-1.4-0.7-2.5-0.7c-0.3,0-0.8,0-1.4,0.1s-1.1,0.2-1.5,0.4v2.4h-4.1v-4.5
		c0.3-0.2,0.7-0.3,1.2-0.6c0.5-0.2,1-0.4,1.7-0.6s1.3-0.3,2-0.5c0.7-0.1,1.5-0.2,2.3-0.2c1.2,0,2.3,0.1,3.2,0.3
		c1,0.2,1.8,0.6,2.5,1.1s1.2,1.2,1.6,2.1s0.5,2,0.5,3.3c0,1.5,0,2.8-0.1,4.1c0,1.3-0.1,2.5-0.1,3.8h2v3.5h-6V114
		c0-0.6,0-1.1,0.1-1.4c0-0.4,0.1-0.7,0.2-1h-0.1c-0.6,1.4-1.3,2.4-2.2,3c-0.9,0.6-2.1,1-3.6,1c-1,0-1.9-0.1-2.6-0.4
		c-0.8-0.3-1.4-0.6-1.9-1.1s-0.9-1-1.1-1.7c-0.2-0.6-0.4-1.3-0.4-2c0-0.6,0.1-1.2,0.3-1.8c0.2-0.5,0.5-1,0.8-1.4s0.7-0.8,1.1-1
		c0.4-0.3,0.9-0.5,1.4-0.7c0.9-0.3,2-0.5,3.2-0.6s2.7-0.2,4.5-0.2v-0.9H342.5z M341.2,107.6c-1,0-1.8,0.1-2.4,0.2s-1.2,0.3-1.6,0.4
		c-0.4,0.2-0.7,0.4-0.9,0.7c-0.2,0.3-0.3,0.6-0.3,1c0,0.5,0.2,1,0.6,1.5s1.1,0.7,2,0.7c0.5,0,0.9-0.1,1.4-0.2s0.9-0.4,1.2-0.8
		c0.4-0.4,0.7-0.8,0.9-1.4c0.2-0.6,0.3-1.3,0.3-2.1C342.4,107.6,341.2,107.6,341.2,107.6z"/>
	<path d="M364,92.5h-2.7V89h7.5v22.7h2v3.5h-6.7c0-0.7,0-1.3,0.1-1.8s0.2-1.1,0.3-1.7h-0.1c-0.5,1.3-1.3,2.2-2.3,2.9
		c-1,0.7-2.3,1-3.8,1c-1,0-1.9-0.2-2.8-0.5c-0.9-0.4-1.6-0.9-2.3-1.6s-1.2-1.5-1.6-2.5s-0.6-2.2-0.6-3.5c0-1.2,0.2-2.5,0.5-3.7
		s0.9-2.4,1.6-3.4c0.8-1,1.8-1.8,3.1-2.5c1.3-0.6,2.9-1,4.8-1c0.4,0,0.9,0,1.4,0.1s1,0.2,1.5,0.3v-4.8H364z M363.9,101.5
		c-0.3-0.2-0.8-0.3-1.4-0.5c-0.6-0.1-1.1-0.2-1.7-0.2c-0.9,0-1.6,0.2-2.2,0.5s-1.1,0.7-1.5,1.2s-0.6,1.1-0.8,1.8
		c-0.2,0.7-0.3,1.3-0.3,2s0.1,1.4,0.2,2c0.2,0.6,0.4,1.2,0.7,1.7c0.3,0.5,0.7,0.9,1.1,1.1s1,0.4,1.6,0.4s1.2-0.1,1.7-0.4
		s0.9-0.6,1.3-1.1s0.6-1,0.8-1.6c0.2-0.6,0.3-1.2,0.3-1.9v-5H363.9z"/>
	<path d="M375.4,92.5h-2.7V89h7.4v8.4c0,0.6,0,1.2,0,1.8c0,0.6-0.1,1.2-0.2,1.9h0.1c0.5-1.2,1.2-2.2,2.3-2.9c1-0.8,2.4-1.2,3.9-1.2
		c2.1,0,3.7,0.6,4.7,1.9s1.5,2.9,1.5,5.1v7.8h2v3.5h-8.8v-3.5h1.9v-7.3c0-1.2-0.3-2.1-0.9-2.6s-1.3-0.8-2.2-0.8
		c-0.7,0-1.4,0.1-1.9,0.4s-1,0.6-1.3,1s-0.6,0.9-0.8,1.5c-0.2,0.6-0.2,1.2-0.2,1.9v5.9h2v3.5h-8.8v-3.5h1.9V92.5H375.4z"/>
</g>
<path d="M96.9,208.1c0.2-2.4,0.2-7.1-2-12.4c-2.6-6.2-10.3-8.8-10.3-8.8s-1.9,8.9,1.8,14.7c1.2,1.9,3.4,3.7,5.5,5.2
	c-3.3-1-7-2.2-11-3.9c0.6-2.3,1.4-6.9,0.2-12.4c-1.4-6.4-8.4-10.2-8.4-10.2s-3.3,8.3-0.8,14.5c0.8,2,2.7,4.2,4.5,6
	c-2.2-1.1-4.4-2.2-6.7-3.6c-1.2-0.7-2.5-1.4-3.8-2.2c1-2,2.6-6.4,2.3-12.1c-0.3-6.4-6.4-11.3-6.4-11.3s-4.6,7.4-3.2,13.9
	c0.5,2.3,2.1,4.9,3.6,7c-3.3-2.3-6.5-5-9.6-8c1.3-1.8,3.6-5.7,4.3-11.3c0.8-6.2-4.2-12-4.2-12s-5.7,6.4-5.5,12.8
	c0.1,2.2,1.1,5,2.2,7.3c-2.8-2.9-5.4-6.2-8-9.6c1.6-1.6,4.4-4.9,6-10.1c1.8-5.9-2-12.3-2-12.3s-6.6,5.2-7.5,11.5
	c-0.3,2.1,0.2,4.7,0.8,7c-2.2-3.3-4.2-6.8-6-10.4c1.7-1.2,5.1-4,7.6-8.7c2.8-5.3,0.1-12.2,0.1-12.2s-7.2,3.9-9.2,9.8
	c-0.7,2-0.6,4.9-0.4,7.3c-1.7-3.7-3.1-7.6-4.3-11.6c1.8-0.8,5.7-2.9,8.9-7.2c3.6-4.7,2.2-11.8,2.2-11.8s-7.6,2.5-10.5,7.9
	c-1.1,2-1.5,5-1.6,7.4c-1.1-4.1-1.8-8.4-2.3-12.7c1.9-0.5,6-1.8,9.9-5.4c4.3-3.9,4.1-11,4.1-11s-7.8,1.1-11.5,5.8
	c-1.4,1.7-2.3,4.6-2.9,6.9c-0.4-4.5-0.5-9-0.2-13.4c1.8-0.1,6.1-0.7,10.6-3.6c4.8-3.1,5.9-9.9,5.9-9.9s-7.7-0.2-12.1,3.7
	c-1.7,1.6-3.2,4.5-4.2,6.7c0.5-4.8,1.3-9.4,2.5-14c1.8,0.2,6,0.4,10.9-1.7c5.1-2.1,7.3-8.6,7.3-8.6s-7.4-1.6-12.3,1.5
	c-1.9,1.2-3.7,3.6-5,5.6c1.3-4.5,3-8.9,4.9-13.1c1.7,0.5,5.8,1.4,10.8,0.3c5.3-1.2,8.5-7,8.5-7s-6.9-2.8-12.1-0.7
	c-2,0.8-4.2,2.9-5.8,4.6c2.1-4.3,4.5-8.4,7-12.1c1.4,0.7,5.3,2.4,10.5,2.2c5.3-0.2,9.4-5.3,9.4-5.3s-6.2-3.8-11.6-2.7
	c-2.3,0.5-5.1,2.4-7,3.8c2.9-4.1,6.1-7.9,9.4-11.2c1.1,0.9,4.6,3.3,9.9,4c5.2,0.7,10-3.5,10-3.5S65,42.9,59.5,43
	c-2.6,0.1-6,1.7-8,2.8c1.8-1.7,3.7-3.3,5.5-4.8c2.1-1.7,4.2-3.3,6.2-4.8c0.9,1,3.9,4,8.9,5.5C77,43.2,82.4,40,82.4,40
	s-4.3-5.5-9.6-6.2c-2.4-0.4-5.9,0.6-8.1,1.3c4.6-3.1,8.9-5.5,12.8-7.4c0.6,1,3,4.5,7.7,7c4.5,2.3,10.2,0.1,10.2,0.1s-3.2-6-8.2-7.7
	c-2.6-0.8-6.7-0.3-8.7,0c3.4-1.6,6.5-2.8,8.9-3.6c1,0.5,4.5,2,7.7,0.9c4.7-1.6,7-4.8,7-4.8s-4.9-1.9-7.7-1.4
	c-3.6,0.6-6.6,4.1-7.2,4.9c-2,0.6-4.4,1.5-7.1,2.6c1.7-1.2,4.9-3.6,6.2-5.9C88.9,15.5,87,8.9,87,8.9s-5.7,2.4-7.3,7.2
	c-1.7,5.2-0.9,9.4-0.7,10.5c-3.9,1.7-8.4,4-13.2,7c1.6-1.6,4.1-4.3,4.8-6.7c1.6-5-1.4-11.3-1.4-11.3s-5.3,3.4-6,8.5
	c-0.8,5.4,0.7,9.4,1.1,10.6c-2.6,1.7-5.2,3.6-7.9,5.8c-1.2,0.9-2.4,1.9-3.5,2.9c1.3-1.9,2.8-4.6,3.1-6.8c0.7-5.4-3.4-11.1-3.4-11.1
	s-4.7,4.4-4.6,9.6c0.1,5.2,2.1,8.9,2.9,10.2c-3.3,3.1-6.5,6.6-9.5,10.5c0.9-2.1,1.9-4.9,1.8-7.1c-0.2-5.5-5.4-10.6-5.4-10.6
	s-3.9,5.2-2.9,10.4s3.6,8.5,4.7,9.7c-2.8,3.8-5.3,7.9-7.6,12.3c0.5-2.3,1.1-5.4,0.6-7.6c-1.2-5.5-7.3-9.7-7.3-9.7s-3,5.9-1,11
	c2,5,5.2,8,6.4,9c-2,4.1-3.8,8.4-5.3,12.8c0.1-2.3,0-5.2-0.8-7.2c-2.2-5.3-9.1-8.4-9.1-8.4s-2,6.5,0.9,11.2c2.8,4.6,6.4,6.9,7.9,7.8
	c-1.2,4.2-2.2,8.4-2.8,12.8c-0.3-2.2-0.9-4.6-2-6.3C16.4,90.9,8.9,89,8.9,89s-0.9,6.9,2.9,11.1c3.5,3.9,7.3,5.7,9.1,6.3
	c-0.4,4.2-0.6,8.5-0.4,12.8c-0.7-2.1-1.7-4.4-3-5.8c-4-4.4-11.9-5-11.9-5s0.4,7.1,4.9,10.7c4.2,3.4,8.5,4.4,10.3,4.8
	c0.3,4.1,0.8,8.1,1.6,12.1c-1.1-1.9-2.5-4-4-5.2c-4.8-3.7-12.8-2.9-12.8-2.9s1.6,7,6.8,9.9c4.8,2.6,9.1,2.9,11.1,3
	c1,4,2.3,7.8,3.9,11.6c-1.4-1.8-3.2-3.6-5-4.6c-5.5-2.9-13.4-0.7-13.4-0.7s2.9,6.8,8.6,8.7c5.3,1.8,9.8,1.3,11.7,1
	c1.7,3.8,3.7,7.4,5.8,10.8c-1.8-1.6-3.9-3.1-5.9-3.8c-6-2-13.6,1.7-13.6,1.7s4.1,6.3,10.2,7.2c5.6,0.9,10.1-0.4,12-1.1
	c2.3,3.3,4.7,6.4,7.2,9.3c-1.9-1.1-4.2-2.2-6.1-2.4c-6.4-0.9-13.4,4.1-13.4,4.1s5.2,5.6,11.5,5.5c5.6-0.1,9.7-2,11.6-3.1
	c2.7,2.8,5.5,5.3,8.3,7.6c-2-0.7-4.2-1.2-6-1.2c-6.6,0.2-12.7,6.5-12.7,6.5s6.3,4.7,12.5,3.5c5.5-1.1,9.3-3.7,11.1-5.1
	c2,1.4,4,2.6,6,3.7c1.3,0.8,2.5,1.5,3.8,2.1c-2.2-0.4-4.6-0.6-6.5-0.2c-6.6,1.4-11.6,8.8-11.6,8.8s7.1,3.6,13.2,1.3
	c5.4-2.1,8.8-5.4,10.3-7.2c3.7,1.7,7.1,3.1,10.3,4.1c-2.3,0-4.6,0.3-6.4,1c-6.4,2.6-10.1,10.9-10.1,10.9s7.8,2.4,13.5-1.1
	c5-3.1,7.8-7,9-9c9.1,2.4,14.8,2.8,14.8,2.8l0.2-1.6l0.2-1.6C108.7,210.1,104.3,209.8,96.9,208.1z M441.7,137.5
	c5.2-2.8,6.8-9.9,6.8-9.9s-8-0.8-12.8,2.9c-1.5,1.2-2.9,3.2-4,5.2c0.8-3.9,1.4-8,1.6-12.1c1.9-0.3,6.1-1.4,10.3-4.8
	c4.5-3.6,4.9-10.7,4.9-10.7s-7.9,0.6-11.9,5c-1.3,1.4-2.3,3.7-3,5.8c0.2-4.3,0.1-8.6-0.4-12.8c1.8-0.6,5.7-2.4,9.1-6.3
	c3.7-4.2,2.9-11.1,2.9-11.1s-7.5,1.9-10.6,6.9c-1,1.6-1.6,4.1-2,6.3c-0.7-4.4-1.6-8.7-2.8-12.8c1.5-0.8,5.1-3.2,7.9-7.8
	c2.9-4.7,0.9-11.2,0.9-11.2s-6.9,3.1-9.1,8.4c-0.8,2-0.9,4.9-0.8,7.2c-1.5-4.5-3.3-8.8-5.3-12.8c1.2-1,4.5-3.9,6.4-9
	c2-5.1-1-11-1-11s-6.1,4.2-7.3,9.7c-0.5,2.2,0,5.3,0.6,7.6c-2.3-4.4-4.9-8.5-7.6-12.3c1-1.2,3.6-4.5,4.7-9.7s-2.9-10.4-2.9-10.4
	s-5.2,5.1-5.4,10.6c-0.1,2.2,0.9,5,1.8,7.1c-3-3.9-6.2-7.4-9.5-10.5c0.8-1.3,2.7-5,2.9-10.2c0.1-5.2-4.6-9.6-4.6-9.6
	s-4.2,5.8-3.4,11.1c0.3,2.2,1.9,4.9,3.1,6.8c-1.2-1-2.4-2-3.5-2.9c-2.7-2.2-5.3-4.1-7.9-5.8c0.5-1.1,1.9-5.2,1.1-10.6
	c-0.8-5.1-6-8.5-6-8.5s-3,6.3-1.4,11.3c0.8,2.4,3.3,5.1,4.8,6.7c-4.8-3-9.3-5.3-13.2-7c0.2-1,1-5.3-0.7-10.5
	c-1.6-4.8-7.3-7.2-7.3-7.2s-1.9,6.6,0.6,11.2c1.2,2.3,4.4,4.7,6.2,5.9c-2.7-1.1-5.1-2-7.1-2.6c-0.6-0.8-3.6-4.3-7.2-4.9
	c-2.9-0.5-7.7,1.4-7.7,1.4s2.3,3.2,7,4.8c3.1,1.1,6.6-0.4,7.7-0.9c2.4,0.8,5.5,2,8.9,3.6c-2-0.3-6.1-0.9-8.7,0
	c-4.9,1.6-8.2,7.7-8.2,7.7s5.7,2.2,10.2-0.1c4.8-2.5,7.1-6,7.7-7c3.9,1.9,8.2,4.3,12.8,7.4c-2.1-0.7-5.6-1.7-8.1-1.3
	c-5.2,0.8-9.6,6.2-9.6,6.2s5.4,3.2,10.3,1.7c5-1.6,7.9-4.5,8.9-5.5c2,1.4,4.1,3,6.2,4.8c1.9,1.4,3.7,3.1,5.5,4.8
	c-2-1.1-5.4-2.7-8-2.8c-5.4-0.2-10.7,4.6-10.7,4.6s4.8,4.2,10,3.5c5.3-0.7,8.8-3.1,9.9-4c3.3,3.3,6.4,7,9.4,11.2
	c-1.8-1.4-4.6-3.4-7-3.8c-5.4-1.1-11.6,2.7-11.6,2.7s4.1,5.1,9.4,5.3c5.2,0.2,9.1-1.4,10.5-2.2c2.6,3.8,4.9,7.8,7,12.1
	c-1.6-1.7-3.8-3.8-5.8-4.6c-5.2-2.1-12.1,0.7-12.1,0.7s3.2,5.8,8.5,7c5,1.1,9,0.2,10.8-0.3c1.9,4.2,3.5,8.6,4.9,13.1
	c-1.3-2-3.1-4.4-5-5.6c-4.9-3-12.3-1.5-12.3-1.5s2.2,6.4,7.3,8.6c4.8,2,9.1,1.9,10.9,1.7c1.2,4.5,2,9.2,2.5,14
	c-1-2.3-2.4-5.2-4.2-6.7c-4.4-3.9-12.1-3.7-12.1-3.7s1.1,6.9,5.9,9.9c4.5,2.9,8.8,3.5,10.6,3.6c0.3,4.4,0.2,8.9-0.2,13.4
	c-0.6-2.3-1.5-5.2-2.9-6.9c-3.7-4.7-11.5-5.8-11.5-5.8s-0.1,7.1,4.1,11c3.9,3.6,8,5,9.9,5.4c-0.4,4.3-1.2,8.6-2.3,12.7
	c-0.2-2.4-0.6-5.4-1.6-7.4c-2.9-5.4-10.5-7.9-10.5-7.9s-1.4,7.1,2.2,11.8c3.3,4.3,7.1,6.4,8.9,7.2c-1.2,4-2.7,7.8-4.3,11.6
	c0.2-2.4,0.3-5.2-0.4-7.3c-1.9-5.9-9.2-9.8-9.2-9.8s-2.6,6.9,0.1,12.2c2.5,4.8,5.8,7.5,7.6,8.7c-1.8,3.6-3.8,7.1-6,10.4
	c0.6-2.3,1.1-5,0.8-7c-0.9-6.3-7.5-11.5-7.5-11.5s-3.9,6.4-2,12.3c1.6,5.1,4.4,8.5,6,10.1c-2.5,3.4-5.2,6.6-8,9.6
	c1.1-2.3,2.2-5,2.2-7.3c0.2-6.5-5.5-12.8-5.5-12.8s-5,5.8-4.2,12c0.7,5.6,3.1,9.5,4.3,11.3c-3.1,3-6.3,5.7-9.6,8
	c1.5-2.1,3.1-4.7,3.6-7c1.4-6.5-3.2-13.9-3.2-13.9s-6.1,4.9-6.4,11.3c-0.3,5.7,1.4,10,2.3,12.1c-1.3,0.8-2.5,1.5-3.8,2.2
	c-2.3,1.3-4.5,2.5-6.7,3.6c1.8-1.8,3.7-4,4.5-6c2.5-6.3-0.8-14.5-0.8-14.5s-7,3.9-8.4,10.2c-1.2,5.6-0.4,10.1,0.2,12.4
	c-4,1.7-7.7,3-11,3.9c2.1-1.5,4.3-3.3,5.5-5.2c3.6-5.9,1.8-14.7,1.8-14.7s-7.7,2.7-10.3,8.8c-2.2,5.3-2.2,10-2,12.4
	c-7.4,1.7-11.8,2-11.8,2l0.2,1.6l0.2,1.6c0,0,5.6-0.4,14.8-2.8c1.2,2,4,5.9,9,9c5.7,3.5,13.5,1.1,13.5,1.1s-3.7-8.3-10.1-10.9
	c-1.8-0.7-4.2-1-6.4-1c3.2-1.1,6.7-2.4,10.3-4.1c1.5,1.7,4.9,5,10.3,7.2c6.1,2.4,13.2-1.3,13.2-1.3s-5-7.4-11.6-8.8
	c-1.9-0.4-4.3-0.2-6.5,0.2c1.2-0.7,2.5-1.4,3.8-2.1c2-1.1,4-2.4,6-3.7c1.8,1.4,5.6,4,11.1,5.1c6.3,1.3,12.5-3.5,12.5-3.5
	s-6.1-6.3-12.7-6.5c-1.8-0.1-4,0.5-6,1.2c2.8-2.3,5.6-4.8,8.3-7.6c1.9,1.1,6.1,3,11.6,3.1c6.3,0.2,11.5-5.5,11.5-5.5
	s-6.9-5-13.4-4.1c-1.9,0.3-4.1,1.3-6.1,2.4c2.5-2.9,4.9-6,7.2-9.3c1.9,0.7,6.4,1.9,12,1.1c6.1-0.9,10.2-7.2,10.2-7.2
	s-7.5-3.6-13.6-1.7c-2,0.6-4.1,2.2-5.9,3.8c2.1-3.4,4.1-7.1,5.8-10.8c2,0.3,6.5,0.8,11.7-1c5.7-1.9,8.6-8.7,8.6-8.7
	s-7.9-2.2-13.4,0.7c-1.8,0.9-3.5,2.8-5,4.6c1.5-3.7,2.8-7.6,3.9-11.6C432.5,140.4,436.9,140.1,441.7,137.5z"/>
<rect x="59.3" y="126.5" width="335.4" height="1"/>
<g id="_x33_0th" class="st0">
</g>
<g id="_x32_9th" class="st0">
</g>
<g>
	<path d="M211.3,70.2L211.3,70.2c3.7,0.2,5.8,2.4,5.8,5.8c0,4.4-3.4,7.4-10.1,7.4c-3.3,0-5.4-0.5-7.3-1.4v-4.6
		c2.4,1.3,4.9,1.9,7,1.9c3.5,0,5.5-1.3,5.5-3.6c0-2.3-2.2-3.5-7-3.5v-3.3c3.9,0,6.1-1.7,6.1-4.1c0-1.6-1.3-2.7-3.1-2.7
		c-2,0-3.8,1.4-3.8,3.5h-4.8c0.2-4.2,3.8-7.1,8.8-7.1c4.7,0,7.7,2.5,7.7,6C216.2,67.4,214.2,69.8,211.3,70.2z"/>
	<path d="M232.9,70.5L232.9,70.5c3.3,0.9,5.5,3.1,5.5,6.2c0,4.3-3.3,6.8-9.5,6.8c-5.3,0-9-2.1-9-6.3c0-3,2-5.3,5.7-6.4v-0.1
		c-3.4-1-4.8-3.3-4.8-5.9c0-3.7,3.4-6.4,8.7-6.4s8.2,2.6,8.2,6C237.7,67.4,236.3,69.1,232.9,70.5z M233.6,76.6
		c0-1.8-1.4-2.8-4.7-3.9c-2.7,1-4.1,2.3-4.1,4c0,1.8,1.7,3.2,4.3,3.2C232,79.8,233.6,78.3,233.6,76.6z M232.9,64.9
		c0-1.9-1.5-2.7-3.7-2.7c-2.1,0-3.6,1.2-3.6,2.9c0,1.6,1.3,2.6,3.7,3.6C231.6,67.5,232.9,66.6,232.9,64.9z"/>
	<path d="M243.9,61.2h2.8v2h-2.8v4.7c0,1.2,0.3,1.7,1.5,1.7c0.4,0,0.9-0.1,1.4-0.3l-0.1,2c-1,0.4-1.7,0.5-2.4,0.5
		c-2.1,0-3.1-1-3.1-2.7v-5.9h-1.4v-2h1.4v-2.1l2.8-0.2L243.9,61.2L243.9,61.2z"/>
	<path d="M251.1,56.3v5.1c0,0.7,0,1.3-0.2,2l0,0c0.5-1.4,1.8-2.4,3.6-2.4c2.5,0,3.6,1.6,3.6,4v4.6h1.2v2h-5.1v-2h1.1v-4.3
		c0-1.3-0.7-1.9-1.8-1.9c-1.6,0-2.4,1.1-2.4,2.7v3.5h1.2v2h-5.1v-2h1.1V58.3h-1.6v-2H251.1z"/>
</g>
<g>
	<g>
		<path d="M111,146.8c0-2.2,0.2-4.1,0.7-5.6c0.5-1.6,1.1-2.9,2-3.9s1.9-1.8,3.1-2.3s2.6-0.7,4.1-0.7s2.9,0.2,4.1,0.7
			s2.2,1.2,3.1,2.3c0.8,1,1.5,2.3,2,3.9c0.5,1.6,0.7,3.5,0.7,5.7s-0.2,4.1-0.7,5.7c-0.5,1.6-1.1,2.9-2,3.9c-0.9,1-1.9,1.8-3.1,2.3
			s-2.6,0.7-4.1,0.7s-2.9-0.2-4.1-0.7s-2.2-1.2-3.1-2.3c-0.8-1-1.5-2.3-2-3.9C111.2,150.8,111,149,111,146.8z M126.1,146.8
			c0-1.8-0.1-3.3-0.4-4.4c-0.2-1.2-0.6-2.1-1.1-2.8s-1-1.1-1.6-1.4c-0.6-0.3-1.4-0.4-2.2-0.4c-0.8,0-1.5,0.1-2.1,0.4
			c-0.6,0.3-1.2,0.7-1.6,1.4c-0.5,0.7-0.8,1.6-1.1,2.8s-0.4,2.6-0.4,4.4c0,1.8,0.1,3.3,0.4,4.4c0.2,1.2,0.6,2.1,1.1,2.8
			s1,1.2,1.6,1.4c0.6,0.3,1.3,0.4,2.1,0.4c0.8,0,1.5-0.1,2.2-0.4c0.6-0.3,1.2-0.7,1.6-1.4c0.5-0.7,0.8-1.6,1.1-2.8
			C126,150,126.1,148.5,126.1,146.8z"/>
		<path d="M137.4,158.8c-0.1,0-0.2,0.1-0.4,0.1c-0.1,0-0.3,0.1-0.5,0.1s-0.4,0-0.7,0s-0.5,0-0.7,0s-0.3,0-0.5-0.1
			c-0.2,0-0.3-0.1-0.4-0.1v-16.9h9.6c0.1,0.2,0.1,0.4,0.2,0.6s0.1,0.4,0.1,0.6c0,0.4-0.1,0.9-0.2,1.2h-6.5v5.1h5.8
			c0.2,0.3,0.2,0.7,0.2,1.2s-0.1,0.9-0.2,1.3h-5.8L137.4,158.8L137.4,158.8z"/>
		<path d="M150,158.8c-0.1,0-0.2,0.1-0.4,0.1c-0.1,0-0.3,0.1-0.5,0.1s-0.4,0-0.7,0s-0.5,0-0.7,0s-0.3,0-0.5-0.1
			c-0.2,0-0.3-0.1-0.4-0.1v-16.9h9.6c0.1,0.2,0.1,0.4,0.2,0.6c0,0.2,0.1,0.4,0.1,0.6c0,0.4-0.1,0.9-0.2,1.2H150v5.1h5.8
			c0.2,0.3,0.2,0.7,0.2,1.2s-0.1,0.9-0.2,1.3H150V158.8z"/>
		<path d="M159.5,142.1c0.1,0,0.2-0.1,0.4-0.1c0.1,0,0.3-0.1,0.5-0.1s0.4,0,0.7,0s0.5,0,0.7,0s0.4,0.1,0.5,0.1
			c0.2,0,0.3,0.1,0.4,0.1v16.7c-0.1,0-0.2,0.1-0.4,0.1c-0.1,0-0.3,0.1-0.5,0.1s-0.4,0-0.6,0c-0.3,0-0.5,0-0.7,0s-0.3,0-0.5-0.1
			c-0.1,0-0.3-0.1-0.4-0.1L159.5,142.1L159.5,142.1z"/>
		<path d="M165.7,150.4c0-2.9,0.6-5.1,1.8-6.6s3-2.2,5.4-2.2c0.7,0,1.3,0,1.8,0.1s0.9,0.2,1.3,0.3c0.4,0.1,0.8,0.3,1.1,0.4
			c0,0.5,0,0.9-0.2,1.3c-0.2,0.4-0.4,0.7-0.7,1c-0.3-0.1-0.6-0.2-0.9-0.2c-0.3-0.1-0.6-0.1-0.9-0.2s-0.7-0.1-1.1-0.1
			c-0.6,0-1.2,0.1-1.7,0.3s-1,0.5-1.4,1s-0.7,1.1-0.9,1.9c-0.2,0.8-0.3,1.8-0.3,3.1c0,1.2,0.1,2.3,0.3,3c0.2,0.8,0.5,1.4,0.9,1.9
			s0.8,0.8,1.4,1c0.5,0.2,1.1,0.3,1.7,0.3c0.4,0,0.8,0,1.2-0.1c0.4,0,0.7-0.1,1-0.2c0.3-0.1,0.6-0.2,0.9-0.3c0.3,0.3,0.5,0.6,0.7,1
			s0.2,0.8,0.2,1.3c-0.3,0.2-0.7,0.3-1.1,0.4c-0.4,0.1-0.8,0.2-1.4,0.3c-0.5,0.1-1.2,0.1-1.9,0.1c-2.4,0-4.2-0.7-5.4-2.2
			S165.7,153.3,165.7,150.4z"/>
		<path d="M179.8,142.1c0.1,0,0.2-0.1,0.4-0.1c0.1,0,0.3-0.1,0.5-0.1s0.4,0,0.7,0s0.5,0,0.7,0s0.4,0.1,0.5,0.1
			c0.2,0,0.3,0.1,0.4,0.1v16.7c-0.1,0-0.2,0.1-0.4,0.1c-0.1,0-0.3,0.1-0.5,0.1s-0.4,0-0.6,0c-0.3,0-0.5,0-0.7,0s-0.3,0-0.5-0.1
			c-0.1,0-0.3-0.1-0.4-0.1L179.8,142.1L179.8,142.1z"/>
		<path d="M190.8,142.1c0.2,0,0.3-0.1,0.5-0.1s0.4-0.1,0.6-0.1c0.2,0,0.5,0,0.7,0c0.3,0,0.5,0,0.8,0c0.2,0,0.4,0.1,0.6,0.1
			c0.2,0,0.3,0.1,0.5,0.1l5.7,16.7c-0.1,0-0.2,0.1-0.4,0.1c-0.1,0-0.3,0.1-0.5,0.1s-0.5,0-0.7,0c-0.3,0-0.5,0-0.7,0s-0.3,0-0.5-0.1
			c-0.1,0-0.3-0.1-0.4-0.1l-1.3-3.8h-6.5l-1.3,3.8c-0.1,0-0.2,0.1-0.4,0.1c-0.1,0-0.3,0.1-0.5,0.1s-0.4,0-0.6,0c-0.2,0-0.4,0-0.6,0
			c-0.2,0-0.3,0-0.5-0.1c-0.1,0-0.3-0.1-0.4-0.1L190.8,142.1z M192.5,145c-0.1,0.2-0.1,0.5-0.2,0.8c-0.1,0.2-0.1,0.5-0.2,0.8
			c-0.1,0.3-0.2,0.7-0.3,1l-1.7,4.8h4.8l-1.6-4.8c-0.1-0.4-0.2-0.7-0.3-1s-0.2-0.6-0.2-0.8L192.5,145L192.5,145z"/>
		<path d="M202.5,142.1c0.1,0,0.2-0.1,0.4-0.1c0.1,0,0.3-0.1,0.5-0.1s0.4,0,0.7,0s0.5,0,0.7,0s0.4,0.1,0.5,0.1
			c0.2,0,0.3,0.1,0.4,0.1v14.3h6.8c0.1,0.2,0.1,0.4,0.2,0.6s0.1,0.5,0.1,0.7s0,0.4-0.1,0.7c0,0.2-0.1,0.4-0.2,0.7h-9.9L202.5,142.1
			L202.5,142.1z"/>
		<path d="M222.1,141.3c0-1.1,0.2-2,0.5-2.9c0.4-0.9,0.9-1.6,1.6-2.3c0.7-0.6,1.6-1.1,2.7-1.5c1.1-0.4,2.3-0.5,3.8-0.5
			c1.1,0,2,0.1,2.9,0.2c0.8,0.1,1.6,0.2,2.1,0.3c0.7,0.2,1.3,0.3,1.8,0.5c0,0.6-0.1,1.2-0.3,1.8s-0.5,1.2-0.9,1.6
			c-0.4-0.1-0.9-0.3-1.5-0.4c-0.5-0.1-1-0.2-1.6-0.3s-1.3-0.1-2-0.1c-3.2,0-4.9,1.1-4.9,3.3c0,0.5,0.2,1,0.5,1.4s0.8,0.7,1.3,1
			c0.6,0.3,1.2,0.5,1.9,0.7s1.4,0.5,2.2,0.7c0.8,0.3,1.5,0.6,2.2,1s1.4,0.8,2,1.4s1,1.2,1.4,2s0.5,1.7,0.5,2.8
			c0,2.4-0.7,4.2-2.2,5.4s-3.7,1.9-6.6,1.9c-1.2,0-2.2-0.1-3.2-0.2c-0.9-0.2-1.7-0.3-2.4-0.5c-0.8-0.2-1.5-0.5-2-0.7
			c0-0.6,0.1-1.2,0.3-1.8s0.4-1.2,0.8-1.7c0.6,0.2,1.3,0.4,2,0.5c0.6,0.1,1.3,0.3,2,0.4s1.6,0.2,2.3,0.2c1.6,0,2.7-0.3,3.4-0.8
			c0.7-0.6,1.1-1.4,1.1-2.5c0-0.5-0.1-0.9-0.3-1.2c-0.2-0.4-0.4-0.7-0.7-0.9c-0.3-0.3-0.7-0.5-1.1-0.7c-0.4-0.2-0.9-0.4-1.4-0.6
			c-0.9-0.3-1.8-0.6-2.8-0.9c-1-0.3-1.9-0.7-2.7-1.2s-1.5-1.2-2.1-2S222.1,142.7,222.1,141.3z"/>
		<path d="M251.6,141.9c0.2,0.4,0.2,0.8,0.2,1.1c0,0.5-0.1,0.9-0.2,1.3h-6.8v4.8h5.6c0.1,0.2,0.1,0.4,0.2,0.6c0,0.2,0.1,0.4,0.1,0.6
			c0,0.5-0.1,0.9-0.2,1.3h-5.6v5h7c0.1,0.2,0.1,0.4,0.2,0.6c0,0.2,0.1,0.4,0.1,0.6c0,0.5-0.1,0.9-0.2,1.3h-10.1V142h9.7V141.9z"/>
		<path d="M255,142.1c0.1,0,0.2-0.1,0.4-0.1c0.1,0,0.3-0.1,0.5-0.1c0.2,0,0.4,0,0.7,0c0.3,0,0.5,0,0.7,0s0.4,0.1,0.5,0.1
			c0.2,0,0.3,0.1,0.4,0.1v14.3h6.8c0.1,0.2,0.1,0.4,0.2,0.6s0.1,0.5,0.1,0.7s0,0.4-0.1,0.7c0,0.2-0.1,0.4-0.2,0.7h-10V142.1z"/>
		<path d="M277.3,141.9c0.2,0.4,0.2,0.8,0.2,1.1c0,0.5-0.1,0.9-0.2,1.3h-6.8v4.8h5.6c0.1,0.2,0.1,0.4,0.2,0.6c0,0.2,0.1,0.4,0.1,0.6
			c0,0.5-0.1,0.9-0.2,1.3h-5.6v5h7c0.1,0.2,0.1,0.4,0.2,0.6c0,0.2,0.1,0.4,0.1,0.6c0,0.5-0.1,0.9-0.2,1.3h-10.1V142h9.7V141.9z"/>
		<path d="M279.6,150.4c0-2.9,0.6-5.1,1.8-6.6c1.2-1.5,3-2.2,5.4-2.2c0.7,0,1.3,0,1.8,0.1s0.9,0.2,1.3,0.3s0.8,0.3,1.1,0.4
			c0,0.5,0,0.9-0.2,1.3c-0.2,0.4-0.4,0.7-0.7,1c-0.3-0.1-0.6-0.2-0.9-0.2c-0.3-0.1-0.6-0.1-0.9-0.2s-0.7-0.1-1.1-0.1
			c-0.6,0-1.2,0.1-1.7,0.3s-1,0.5-1.4,1s-0.7,1.1-0.9,1.9c-0.2,0.8-0.3,1.8-0.3,3.1c0,1.2,0.1,2.3,0.3,3c0.2,0.8,0.5,1.4,0.9,1.9
			s0.8,0.8,1.4,1c0.5,0.2,1.1,0.3,1.7,0.3c0.4,0,0.8,0,1.2-0.1c0.4,0,0.7-0.1,1-0.2c0.3-0.1,0.6-0.2,0.9-0.3c0.3,0.3,0.5,0.6,0.7,1
			s0.2,0.8,0.2,1.3c-0.3,0.2-0.7,0.3-1.1,0.4c-0.4,0.1-0.8,0.2-1.4,0.3c-0.5,0.1-1.2,0.1-1.9,0.1c-2.4,0-4.2-0.7-5.4-2.2
			S279.6,153.3,279.6,150.4z"/>
		<path d="M304.2,141.9c0,0.1,0.1,0.2,0.1,0.4c0,0.1,0.1,0.3,0.1,0.4c0,0.2,0,0.3,0,0.5s0,0.4,0,0.5s-0.1,0.3-0.1,0.4
			c0,0.1-0.1,0.3-0.1,0.4H300v14.3c-0.1,0-0.2,0.1-0.4,0.1c-0.1,0-0.3,0.1-0.5,0.1s-0.4,0-0.6,0c-0.3,0-0.5,0-0.7,0s-0.3,0-0.5-0.1
			c-0.1,0-0.3-0.1-0.4-0.1v-14.3h-4.3c0-0.1-0.1-0.2-0.1-0.4c-0.1-0.2-0.1-0.5-0.1-0.9s0-0.7,0.1-1c0-0.1,0.1-0.3,0.1-0.4h11.6
			V141.9z"/>
		<path d="M306.9,142.1c0.1,0,0.2-0.1,0.4-0.1c0.1,0,0.3-0.1,0.5-0.1s0.4,0,0.7,0s0.5,0,0.7,0s0.4,0.1,0.5,0.1
			c0.2,0,0.3,0.1,0.4,0.1v16.7c-0.1,0-0.2,0.1-0.4,0.1c-0.1,0-0.3,0.1-0.5,0.1s-0.4,0-0.6,0c-0.3,0-0.5,0-0.7,0s-0.3,0-0.5-0.1
			c-0.1,0-0.3-0.1-0.4-0.1v-16.7H306.9z"/>
		<path d="M313.1,150.4c0-1.5,0.2-2.8,0.5-4c0.3-1.1,0.8-2,1.4-2.7s1.3-1.2,2.2-1.6c0.8-0.3,1.8-0.5,2.8-0.5s2,0.2,2.8,0.5
			s1.6,0.9,2.2,1.6c0.6,0.7,1.1,1.6,1.4,2.7c0.3,1.1,0.5,2.4,0.5,4s-0.2,2.9-0.5,4s-0.8,2-1.4,2.7s-1.3,1.2-2.2,1.6
			c-0.8,0.3-1.8,0.5-2.9,0.5s-2-0.2-2.9-0.5c-0.8-0.3-1.6-0.9-2.2-1.6s-1.1-1.6-1.4-2.7C313.2,153.3,313.1,152,313.1,150.4z
			 M323.6,150.4c0-1.3-0.1-2.3-0.3-3.1c-0.2-0.8-0.4-1.5-0.7-1.9c-0.3-0.5-0.7-0.8-1.2-1s-1-0.3-1.5-0.3s-1.1,0.1-1.5,0.3
			s-0.8,0.5-1.2,1c-0.3,0.5-0.6,1.1-0.8,1.9c-0.2,0.8-0.3,1.9-0.3,3.1s0.1,2.3,0.3,3.1s0.4,1.5,0.8,1.9c0.3,0.5,0.7,0.8,1.2,1
			c0.4,0.2,0.9,0.3,1.5,0.3s1.1-0.1,1.5-0.3c0.5-0.2,0.8-0.5,1.2-1c0.3-0.5,0.6-1.1,0.7-1.9S323.6,151.7,323.6,150.4z"/>
		<path d="M334.3,149.2c-0.2-0.4-0.4-0.8-0.6-1.2s-0.4-0.8-0.5-1.1c-0.2-0.4-0.3-0.8-0.4-1.1h-0.1c0,0.4,0.1,0.8,0.1,1.3
			c0,0.4,0.1,0.9,0.1,1.4s0,1.1,0,1.7v8.7c-0.1,0-0.2,0.1-0.4,0.1c-0.1,0-0.3,0.1-0.5,0.1s-0.4,0-0.6,0s-0.4,0-0.6,0s-0.3,0-0.4-0.1
			c-0.1,0-0.3-0.1-0.3-0.1v-16.7c0.1,0,0.3-0.1,0.5-0.1s0.3-0.1,0.6-0.1c0.2,0,0.5,0,0.8,0s0.6,0,0.8,0c0.2,0,0.4,0.1,0.6,0.1
			s0.3,0.1,0.5,0.1l4.9,9.5c0.2,0.4,0.4,0.9,0.6,1.3c0.2,0.4,0.4,0.8,0.5,1.1c0.2,0.4,0.3,0.8,0.5,1.1h0.1c0-0.4-0.1-0.8-0.1-1.3
			c0-0.4-0.1-0.9-0.1-1.4s0-1.1,0-1.7v-8.7c0.1,0,0.2-0.1,0.3-0.1c0.1,0,0.3-0.1,0.5-0.1s0.4,0,0.6,0c0.3,0,0.5,0,0.6,0
			c0.2,0,0.3,0.1,0.4,0.1s0.2,0.1,0.3,0.1v16.7c-0.1,0-0.3,0.1-0.4,0.1s-0.3,0.1-0.6,0.1c-0.2,0-0.5,0-0.8,0s-0.6,0-0.8,0
			c-0.2,0-0.4,0-0.6-0.1c-0.2,0-0.3-0.1-0.5-0.1L334.3,149.2z"/>
	</g>
</g>
</svg>
