<svg xmlns="http://www.w3.org/2000/svg" id="Layer_2_00000171696843574950153750000011444081717827492750_" viewBox="0 0 454 227"><path d="M73.3 103.4h9.4v3.7h-2.2v7.4c-1.4.4-2.7.7-4 .9s-2.6.3-4 .3q-3 0-5.4-.9c-2.4-.9-2.9-1.4-4-2.4-1.1-1.1-1.9-2.3-2.5-3.8s-.9-3.2-.9-5c0-1.7.3-3.2.8-4.8a10.9 10.9 0 0 1 6.5-6.7c1.6-.7 3.6-1 5.8-1 1 0 1.9 0 2.6.1q1.2.15 2.1.3c.6.1 1.2.3 1.8.5.5.2 1 .3 1.5.5V99h-4.3v-3.9c-.6-.2-1.2-.3-1.8-.4s-1.1-.1-1.6-.1c-1.5 0-2.8.2-3.8.7a7 7 0 0 0-3.9 4.6c-.3 1-.4 2.1-.4 3.2 0 .9.1 1.9.3 2.9s.6 1.9 1.2 2.8 1.4 1.6 2.5 2.1c1 .6 2.4.8 4 .8.5 0 1 0 1.3-.1.4 0 .8-.1 1.2-.2V107H73v-3.6zm22.6.4q0-1.95-.9-2.7c-.9-.75-1.4-.7-2.5-.7-.3 0-.8 0-1.4.1s-1.1.2-1.5.4v2.4h-4.1v-4.5c.3-.2.7-.3 1.2-.6.5-.2 1-.4 1.7-.6s1.3-.3 2-.5c.6-.1 1.4-.1 2.2-.1 1.2 0 2.3.1 3.2.3 1 .2 1.8.6 2.5 1.1s1.2 1.2 1.6 2.1.5 2 .5 3.3c0 1.5 0 2.8-.1 4.1 0 1.3-.1 2.5-.1 3.8h2v3.5h-6v-1.1c0-.6 0-1.1.1-1.4 0-.4.1-.7.2-1h-.1c-.6 1.4-1.3 2.4-2.2 3s-2.1 1-3.6 1c-1 0-1.9-.1-2.6-.4-.8-.3-1.4-.6-1.9-1.1s-.9-1-1.1-1.7c-.2-.6-.4-1.3-.4-2q0-.9.3-1.8c.2-.5.5-1 .8-1.4s.7-.8 1.1-1c.4-.3.9-.5 1.4-.7.9-.3 2-.5 3.2-.6s2.7-.2 4.5-.2zm-1.4 3.8c-1 0-1.8.1-2.4.2s-1.2.3-1.6.4c-.4.2-.7.4-.9.7s-.3.6-.3 1q0 .75.6 1.5c.6.75 1.1.7 2 .7.5 0 .9-.1 1.4-.2s.9-.4 1.2-.8c.4-.4.7-.8.9-1.4q.3-.9.3-2.1zm11.9-15.1h-2.7V89h7.5v22.7h2v3.5h-8.8v-3.5h1.9zm29.9 4.9h8.5v3.5h-1.6l-6.2 14.4h-5l-2.4-6.2c-.1-.2-.2-.5-.2-.7-.1-.2-.1-.5-.2-.8h-.1c-.1.6-.2 1.1-.4 1.5l-2.7 6.2h-5l-6-14.4h-1.7v-3.5h8.5v3.5h-1.7c.2.3.3.5.4.9.1.3.3.7.4 1.1l2.2 6 .3 1c.1.3.2.7.2 1.1h.1c.1-.4.2-.7.3-1s.3-.7.4-1l2.7-5.9-.8-2h-1.9v-3.5h8.7v3.5h-1.8c.2.3.3.5.4.9.1.3.3.7.4 1.1l2.2 6c.2.4.3.8.3 1 .1.3.1.6.2 1h.1c.1-.4.1-.7.2-1s.2-.6.3-1l2.1-6c.1-.4.3-.8.4-1.1s.3-.6.4-.9h-2.4v-3.7zm20.7 6.4q0-1.95-.9-2.7c-.6-.5-1.4-.7-2.5-.7-.3 0-.8 0-1.4.1s-1.1.2-1.5.4v2.4h-4.1v-4.5c.3-.2.7-.3 1.2-.6.5-.2 1-.4 1.7-.6s1.3-.3 2-.5a15 15 0 0 1 5.5.1c1 .2 1.8.6 2.5 1.1s1.2 1.2 1.6 2.1.5 2 .5 3.3c0 1.5 0 2.8-.1 4.1 0 1.3-.1 2.5-.1 3.8h2v3.5h-6V114c0-.6 0-1.1.1-1.4 0-.4.1-.7.2-1h-.1c-.6 1.4-1.3 2.4-2.2 3s-2.1 1-3.6 1c-1 0-1.9-.1-2.6-.4-.8-.3-1.4-.6-1.9-1.1s-.9-1-1.1-1.7c-.2-.6-.4-1.3-.4-2q0-.9.3-1.8c.2-.5.5-1 .8-1.4s.7-.8 1.1-1c.4-.3.9-.5 1.4-.7.9-.3 2-.5 3.2-.6s2.7-.2 4.5-.2zm-1.4 3.8c-1 0-1.8.1-2.4.2s-1.2.3-1.6.4c-.4.2-.7.4-.9.7s-.3.6-.3 1q0 .75.6 1.5c.4.5 1.1.7 2 .7.5 0 .9-.1 1.4-.2s.9-.4 1.2-.8c.4-.4.7-.8.9-1.4s.3-1.3.3-2.1zm20.1-10.2h8v3.5h-1.6l-5.5 14.7c-.6 1.7-1.3 3.1-1.9 4.2s-1.3 2-1.9 2.6-1.5 1.1-2.3 1.3-1.8.4-2.9.4c-.4 0-.8 0-1.2-.1l-1.4-.3V120l1.4.3c.5.1.9.1 1.2.1.5 0 .9-.1 1.3-.2s.7-.3 1.1-.6c.3-.3.7-.7 1-1.3.3-.5.7-1.2 1.1-2l-6.8-15.6h-1.6v-3.5h8.9v3.5h-1.8c.1.2.3.4.4.6l.3.6 2.3 6.1c.2.5.3 1 .5 1.7.1.6.3 1.2.3 1.7h.1c.1-.5.2-1.1.3-1.7s.3-1.2.5-1.7l2.1-6.1.3-.6c.1-.2.2-.4.4-.6h-2.2v-3.3zm32.8-2.6h-5.6v6.6h6.6v3.7h-6.6v6.6h2.7v3.5h-9.8v-3.5h2.1V94.8h-2.6v-3.5h17.3l.2 7h-4.1zm7.9 6h-2.3v-3.5h7.1v14.4h2v3.5h-8.8v-3.5h1.9v-10.9zm-1-9.4q0-1.35.9-2.1c.6-.5 1.4-.8 2.4-.8s1.8.3 2.4.8.9 1.3.9 2.1-.3 1.6-.9 2.1-1.4.8-2.4.8-1.8-.3-2.4-.8-.9-1.2-.9-2.1m12 1.1h-2.7V89h7.5v22.7h2v3.5h-8.8v-3.5h1.9V92.5zm32.6 19.2h1.7v-7.3c0-1.2-.3-2.1-.9-2.6s-1.3-.8-2.2-.8c-1.2 0-2.1.4-2.8 1.3s-1 2-1 3.4v5.9h2v3.5h-8.6v-3.5h1.7v-7.3c0-1.2-.3-2.1-.9-2.6s-1.3-.8-2.2-.8c-.6 0-1.2.1-1.7.4-.5.2-.9.6-1.2 1s-.6.9-.7 1.5c-.2.6-.2 1.2-.2 1.9v5.9h2v3.5h-8.8v-3.5h1.9v-10.9h-2.3v-3.5h7V99c0 .6-.1 1.2-.2 1.8h.1c.5-1.3 1.3-2.3 2.3-3 1.1-.7 2.3-1 3.8-1s2.7.3 3.5 1c.9.7 1.5 1.7 1.7 3h.1c.4-1.3 1.1-2.2 2.1-3s2.3-1.1 3.8-1.1c2.1 0 3.7.6 4.7 1.9s1.5 2.9 1.5 5.1v7.8h2v3.5H260zm34.3-16.9h-5.6v6.6h6.6v3.7h-6.6v6.6h2.7v3.5h-9.8v-3.5h2.1V94.8h-2.6v-3.5h17.3l.2 7h-4.1zm8.2-2.3h-2.7V89h7.5v22.7h2v3.5h-8.8v-3.5h1.9V92.5zm14 14.9c.1 1.4.6 2.6 1.6 3.4s2.4 1.2 4 1.2a14 14 0 0 0 5.8-1.2l-.2 3.8c-1.1.4-2.2.7-3.2.9s-2.1.3-3.4.3c-1.7 0-3.2-.3-4.4-.8s-2.2-1.2-3-2-1.4-1.8-1.8-3-.6-2.3-.6-3.5c0-1.4.2-2.7.6-3.8s1-2.2 1.8-3 1.7-1.5 2.8-1.9c1.1-.5 2.4-.7 3.8-.7 1.5 0 2.8.3 3.9.8s2 1.3 2.7 2.2q1.05 1.35 1.5 3.3c.45 1.95.5 2.6.5 4.1zm7.2-3.3c0-1.2-.3-2.2-1-2.8-.6-.7-1.5-1-2.6-1s-1.9.3-2.6 1c-.6.7-1 1.6-1.1 2.8zm18.8-.3q0-1.95-.9-2.7c-.9-.75-1.4-.7-2.5-.7-.3 0-.8 0-1.4.1s-1.1.2-1.5.4v2.4h-4.1v-4.5c.3-.2.7-.3 1.2-.6.5-.2 1-.4 1.7-.6s1.3-.3 2-.5a15 15 0 0 1 5.5.1c1 .2 1.8.6 2.5 1.1s1.2 1.2 1.6 2.1.5 2 .5 3.3c0 1.5 0 2.8-.1 4.1 0 1.3-.1 2.5-.1 3.8h2v3.5h-6V114c0-.6 0-1.1.1-1.4 0-.4.1-.7.2-1h-.1c-.6 1.4-1.3 2.4-2.2 3s-2.1 1-3.6 1c-1 0-1.9-.1-2.6-.4-.8-.3-1.4-.6-1.9-1.1s-.9-1-1.1-1.7c-.2-.6-.4-1.3-.4-2q0-.9.3-1.8c.2-.5.5-1 .8-1.4s.7-.8 1.1-1c.4-.3.9-.5 1.4-.7.9-.3 2-.5 3.2-.6s2.7-.2 4.5-.2v-.9zm-1.3 3.8c-1 0-1.8.1-2.4.2s-1.2.3-1.6.4c-.4.2-.7.4-.9.7s-.3.6-.3 1q0 .75.6 1.5c.6.75 1.1.7 2 .7.5 0 .9-.1 1.4-.2s.9-.4 1.2-.8c.4-.4.7-.8.9-1.4q.3-.9.3-2.1zM364 92.5h-2.7V89h7.5v22.7h2v3.5h-6.7c0-.7 0-1.3.1-1.8s.2-1.1.3-1.7h-.1c-.5 1.3-1.3 2.2-2.3 2.9s-2.3 1-3.8 1c-1 0-1.9-.2-2.8-.5a7.3 7.3 0 0 1-3.9-4.1c-.4-1-.6-2.2-.6-3.5 0-1.2.2-2.5.5-3.7s.9-2.4 1.6-3.4c.8-1 1.8-1.8 3.1-2.5a11.4 11.4 0 0 1 6.2-.9l1.5.3v-4.8zm-.1 9c-.3-.2-.8-.3-1.4-.5-.6-.1-1.1-.2-1.7-.2a4.8 4.8 0 0 0-3.7 1.7c-.4.5-.6 1.1-.8 1.8s-.3 1.3-.3 2 .1 1.4.2 2c.2.6.4 1.2.7 1.7s.7.9 1.1 1.1 1 .4 1.6.4 1.2-.1 1.7-.4.9-.6 1.3-1.1.6-1 .8-1.6.3-1.2.3-1.9v-5zm11.5-9h-2.7V89h7.4v10.2c0 .6-.1 1.2-.2 1.9h.1a6 6 0 0 1 2.3-2.9c1-.8 2.4-1.2 3.9-1.2 2.1 0 3.7.6 4.7 1.9s1.5 2.9 1.5 5.1v7.8h2v3.5h-8.8v-3.5h1.9v-7.3c0-1.2-.3-2.1-.9-2.6s-1.3-.8-2.2-.8c-.7 0-1.4.1-1.9.4s-1 .6-1.3 1-.6.9-.8 1.5-.2 1.2-.2 1.9v5.9h2v3.5h-8.8v-3.5h1.9V92.5z"/><path d="M96.9 208.1c.2-2.4.2-7.1-2-12.4-2.6-6.2-10.3-8.8-10.3-8.8s-1.9 8.9 1.8 14.7c1.2 1.9 3.4 3.7 5.5 5.2-3.3-1-7-2.2-11-3.9.6-2.3 1.4-6.9.2-12.4-1.4-6.4-8.4-10.2-8.4-10.2s-3.3 8.3-.8 14.5c.8 2 2.7 4.2 4.5 6-2.2-1.1-4.4-2.2-6.7-3.6-1.2-.7-2.5-1.4-3.8-2.2 1-2 2.6-6.4 2.3-12.1-.3-6.4-6.4-11.3-6.4-11.3s-4.6 7.4-3.2 13.9c.5 2.3 2.1 4.9 3.6 7-3.3-2.3-6.5-5-9.6-8 1.3-1.8 3.6-5.7 4.3-11.3.8-6.2-4.2-12-4.2-12s-5.7 6.4-5.5 12.8c.1 2.2 1.1 5 2.2 7.3-2.8-2.9-5.4-6.2-8-9.6 1.6-1.6 4.4-4.9 6-10.1 1.8-5.9-2-12.3-2-12.3s-6.6 5.2-7.5 11.5c-.3 2.1.2 4.7.8 7a97 97 0 0 1-6-10.4c1.7-1.2 5.1-4 7.6-8.7 2.8-5.3.1-12.2.1-12.2s-7.2 3.9-9.2 9.8c-.7 2-.6 4.9-.4 7.3-1.7-3.7-3.1-7.6-4.3-11.6 1.8-.8 5.7-2.9 8.9-7.2 3.6-4.7 2.2-11.8 2.2-11.8s-7.6 2.5-10.5 7.9c-1.1 2-1.5 5-1.6 7.4-1.1-4.1-1.8-8.4-2.3-12.7 1.9-.5 6-1.8 9.9-5.4 4.3-3.9 4.1-11 4.1-11s-7.8 1.1-11.5 5.8c-1.4 1.7-2.3 4.6-2.9 6.9-.4-4.5-.5-9-.2-13.4 1.8-.1 6.1-.7 10.6-3.6 4.8-3.1 5.9-9.9 5.9-9.9s-7.7-.2-12.1 3.7c-1.7 1.6-3.2 4.5-4.2 6.7.5-4.8 1.3-9.4 2.5-14 1.8.2 6 .4 10.9-1.7 5.1-2.1 7.3-8.6 7.3-8.6s-7.4-1.6-12.3 1.5c-1.9 1.2-3.7 3.6-5 5.6 1.3-4.5 3-8.9 4.9-13.1 1.7.5 5.8 1.4 10.8.3 5.3-1.2 8.5-7 8.5-7s-6.9-2.8-12.1-.7c-2 .8-4.2 2.9-5.8 4.6 2.1-4.3 4.5-8.4 7-12.1 1.4.7 5.3 2.4 10.5 2.2 5.3-.2 9.4-5.3 9.4-5.3s-6.2-3.8-11.6-2.7c-2.3.5-5.1 2.4-7 3.8 2.9-4.1 6.1-7.9 9.4-11.2 1.1.9 4.6 3.3 9.9 4 5.2.7 10-3.5 10-3.5S65 42.9 59.5 43c-2.6.1-6 1.7-8 2.8 1.8-1.7 3.7-3.3 5.5-4.8 2.1-1.7 4.2-3.3 6.2-4.8.9 1 3.9 4 8.9 5.5C77 43.2 82.4 40 82.4 40s-4.3-5.5-9.6-6.2c-2.4-.4-5.9.6-8.1 1.3 4.6-3.1 8.9-5.5 12.8-7.4.6 1 3 4.5 7.7 7 4.5 2.3 10.2.1 10.2.1s-3.2-6-8.2-7.7c-2.6-.8-6.7-.3-8.7 0 3.4-1.6 6.5-2.8 8.9-3.6 1 .5 4.5 2 7.7.9 4.7-1.6 7-4.8 7-4.8s-4.9-1.9-7.7-1.4c-3.6.6-6.6 4.1-7.2 4.9-2 .6-4.4 1.5-7.1 2.6 1.7-1.2 4.9-3.6 6.2-5.9 2.6-4.3.7-10.9.7-10.9s-5.7 2.4-7.3 7.2c-1.7 5.2-.9 9.4-.7 10.5a102 102 0 0 0-13.2 7c1.6-1.6 4.1-4.3 4.8-6.7 1.6-5-1.4-11.3-1.4-11.3s-5.3 3.4-6 8.5c-.8 5.4.7 9.4 1.1 10.6a93 93 0 0 0-7.9 5.8c-1.2.9-2.4 1.9-3.5 2.9 1.3-1.9 2.8-4.6 3.1-6.8.7-5.4-3.4-11.1-3.4-11.1s-4.7 4.4-4.6 9.6 2.1 8.9 2.9 10.2c-3.3 3.1-6.5 6.6-9.5 10.5.9-2.1 1.9-4.9 1.8-7.1-.2-5.5-5.4-10.6-5.4-10.6s-3.9 5.2-2.9 10.4 3.6 8.5 4.7 9.7A94 94 0 0 0 32 70.5c.5-2.3 1.1-5.4.6-7.6-1.2-5.5-7.3-9.7-7.3-9.7s-3 5.9-1 11c2 5 5.2 8 6.4 9-2 4.1-3.8 8.4-5.3 12.8.1-2.3 0-5.2-.8-7.2-2.2-5.3-9.1-8.4-9.1-8.4s-2 6.5.9 11.2c2.8 4.6 6.4 6.9 7.9 7.8-1.2 4.2-2.2 8.4-2.8 12.8-.3-2.2-.9-4.6-2-6.3-3.1-5-10.6-6.9-10.6-6.9s-.9 6.9 2.9 11.1c3.5 3.9 7.3 5.7 9.1 6.3-.4 4.2-.6 8.5-.4 12.8-.7-2.1-1.7-4.4-3-5.8-4-4.4-11.9-5-11.9-5s.4 7.1 4.9 10.7c4.2 3.4 8.5 4.4 10.3 4.8.3 4.1.8 8.1 1.6 12.1-1.1-1.9-2.5-4-4-5.2-4.8-3.7-12.8-2.9-12.8-2.9s1.6 7 6.8 9.9c4.8 2.6 9.1 2.9 11.1 3 1 4 2.3 7.8 3.9 11.6-1.4-1.8-3.2-3.6-5-4.6-5.5-2.9-13.4-.7-13.4-.7s2.9 6.8 8.6 8.7c5.3 1.8 9.8 1.3 11.7 1 1.7 3.8 3.7 7.4 5.8 10.8-1.8-1.6-3.9-3.1-5.9-3.8-6-2-13.6 1.7-13.6 1.7s4.1 6.3 10.2 7.2c5.6.9 10.1-.4 12-1.1q3.45 4.95 7.2 9.3c-1.9-1.1-4.2-2.2-6.1-2.4-6.4-.9-13.4 4.1-13.4 4.1s5.2 5.6 11.5 5.5c5.6-.1 9.7-2 11.6-3.1 2.7 2.8 5.5 5.3 8.3 7.6-2-.7-4.2-1.2-6-1.2-6.6.2-12.7 6.5-12.7 6.5s6.3 4.7 12.5 3.5c5.5-1.1 9.3-3.7 11.1-5.1 2 1.4 4 2.6 6 3.7 1.3.8 2.5 1.5 3.8 2.1-2.2-.4-4.6-.6-6.5-.2-6.6 1.4-11.6 8.8-11.6 8.8s7.1 3.6 13.2 1.3c5.4-2.1 8.8-5.4 10.3-7.2 3.7 1.7 7.1 3.1 10.3 4.1-2.3 0-4.6.3-6.4 1-6.4 2.6-10.1 10.9-10.1 10.9s7.8 2.4 13.5-1.1c5-3.1 7.8-7 9-9 9.1 2.4 14.8 2.8 14.8 2.8l.2-1.6.2-1.6c.2-.2-4.2-.5-11.6-2.2m344.8-70.6c5.2-2.8 6.8-9.9 6.8-9.9s-8-.8-12.8 2.9c-1.5 1.2-2.9 3.2-4 5.2.8-3.9 1.4-8 1.6-12.1 1.9-.3 6.1-1.4 10.3-4.8 4.5-3.6 4.9-10.7 4.9-10.7s-7.9.6-11.9 5c-1.3 1.4-2.3 3.7-3 5.8.2-4.3.1-8.6-.4-12.8 1.8-.6 5.7-2.4 9.1-6.3 3.7-4.2 2.9-11.1 2.9-11.1s-7.5 1.9-10.6 6.9c-1 1.6-1.6 4.1-2 6.3-.7-4.4-1.6-8.7-2.8-12.8 1.5-.8 5.1-3.2 7.9-7.8 2.9-4.7.9-11.2.9-11.2s-6.9 3.1-9.1 8.4c-.8 2-.9 4.9-.8 7.2-1.5-4.5-3.3-8.8-5.3-12.8 1.2-1 4.5-3.9 6.4-9 2-5.1-1-11-1-11s-6.1 4.2-7.3 9.7c-.5 2.2 0 5.3.6 7.6-2.3-4.4-4.9-8.5-7.6-12.3 1-1.2 3.6-4.5 4.7-9.7s-2.9-10.4-2.9-10.4-5.2 5.1-5.4 10.6c-.1 2.2.9 5 1.8 7.1-3-3.9-6.2-7.4-9.5-10.5.8-1.3 2.7-5 2.9-10.2.1-5.2-4.6-9.6-4.6-9.6s-4.2 5.8-3.4 11.1c.3 2.2 1.9 4.9 3.1 6.8l-3.5-2.9a93 93 0 0 0-7.9-5.8c.5-1.1 1.9-5.2 1.1-10.6-.8-5.1-6-8.5-6-8.5s-3 6.3-1.4 11.3c.8 2.4 3.3 5.1 4.8 6.7a102 102 0 0 0-13.2-7c.2-1 1-5.3-.7-10.5-1.6-4.8-7.3-7.2-7.3-7.2s-1.9 6.6.6 11.2c1.2 2.3 4.4 4.7 6.2 5.9-2.7-1.1-5.1-2-7.1-2.6-.6-.8-3.6-4.3-7.2-4.9-2.9-.5-7.7 1.4-7.7 1.4s2.3 3.2 7 4.8c3.1 1.1 6.6-.4 7.7-.9 2.4.8 5.5 2 8.9 3.6-2-.3-6.1-.9-8.7 0-4.9 1.6-8.2 7.7-8.2 7.7s5.7 2.2 10.2-.1c4.8-2.5 7.1-6 7.7-7 3.9 1.9 8.2 4.3 12.8 7.4-2.1-.7-5.6-1.7-8.1-1.3-5.2.8-9.6 6.2-9.6 6.2s5.4 3.2 10.3 1.7c5-1.6 7.9-4.5 8.9-5.5 2 1.4 4.1 3 6.2 4.8 1.9 1.4 3.7 3.1 5.5 4.8-2-1.1-5.4-2.7-8-2.8-5.4-.2-10.7 4.6-10.7 4.6s4.8 4.2 10 3.5c5.3-.7 8.8-3.1 9.9-4 3.3 3.3 6.4 7 9.4 11.2-1.8-1.4-4.6-3.4-7-3.8-5.4-1.1-11.6 2.7-11.6 2.7s4.1 5.1 9.4 5.3c5.2.2 9.1-1.4 10.5-2.2 2.6 3.8 4.9 7.8 7 12.1-1.6-1.7-3.8-3.8-5.8-4.6-5.2-2.1-12.1.7-12.1.7s3.2 5.8 8.5 7c5 1.1 9 .2 10.8-.3 1.9 4.2 3.5 8.6 4.9 13.1-1.3-2-3.1-4.4-5-5.6-4.9-3-12.3-1.5-12.3-1.5s2.2 6.4 7.3 8.6c4.8 2 9.1 1.9 10.9 1.7 1.2 4.5 2 9.2 2.5 14-1-2.3-2.4-5.2-4.2-6.7-4.4-3.9-12.1-3.7-12.1-3.7s1.1 6.9 5.9 9.9c4.5 2.9 8.8 3.5 10.6 3.6.3 4.4.2 8.9-.2 13.4-.6-2.3-1.5-5.2-2.9-6.9-3.7-4.7-11.5-5.8-11.5-5.8s-.1 7.1 4.1 11c3.9 3.6 8 5 9.9 5.4-.4 4.3-1.2 8.6-2.3 12.7-.2-2.4-.6-5.4-1.6-7.4-2.9-5.4-10.5-7.9-10.5-7.9s-1.4 7.1 2.2 11.8c3.3 4.3 7.1 6.4 8.9 7.2-1.2 4-2.7 7.8-4.3 11.6.2-2.4.3-5.2-.4-7.3-1.9-5.9-9.2-9.8-9.2-9.8s-2.6 6.9.1 12.2c2.5 4.8 5.8 7.5 7.6 8.7a97 97 0 0 1-6 10.4c.6-2.3 1.1-5 .8-7-.9-6.3-7.5-11.5-7.5-11.5s-3.9 6.4-2 12.3c1.6 5.1 4.4 8.5 6 10.1-2.5 3.4-5.2 6.6-8 9.6 1.1-2.3 2.2-5 2.2-7.3.2-6.5-5.5-12.8-5.5-12.8s-5 5.8-4.2 12c.7 5.6 3.1 9.5 4.3 11.3-3.1 3-6.3 5.7-9.6 8 1.5-2.1 3.1-4.7 3.6-7 1.4-6.5-3.2-13.9-3.2-13.9s-6.1 4.9-6.4 11.3c-.3 5.7 1.4 10 2.3 12.1-1.3.8-2.5 1.5-3.8 2.2-2.3 1.3-4.5 2.5-6.7 3.6 1.8-1.8 3.7-4 4.5-6 2.5-6.3-.8-14.5-.8-14.5s-7 3.9-8.4 10.2c-1.2 5.6-.4 10.1.2 12.4-4 1.7-7.7 3-11 3.9 2.1-1.5 4.3-3.3 5.5-5.2 3.6-5.9 1.8-14.7 1.8-14.7s-7.7 2.7-10.3 8.8c-2.2 5.3-2.2 10-2 12.4-7.4 1.7-11.8 2-11.8 2l.2 1.6.2 1.6s5.6-.4 14.8-2.8c1.2 2 4 5.9 9 9 5.7 3.5 13.5 1.1 13.5 1.1s-3.7-8.3-10.1-10.9c-1.8-.7-4.2-1-6.4-1 3.2-1.1 6.7-2.4 10.3-4.1 1.5 1.7 4.9 5 10.3 7.2 6.1 2.4 13.2-1.3 13.2-1.3s-5-7.4-11.6-8.8c-1.9-.4-4.3-.2-6.5.2 1.2-.7 2.5-1.4 3.8-2.1 2-1.1 4-2.4 6-3.7 1.8 1.4 5.6 4 11.1 5.1 6.3 1.3 12.5-3.5 12.5-3.5s-6.1-6.3-12.7-6.5c-1.8-.1-4 .5-6 1.2 2.8-2.3 5.6-4.8 8.3-7.6 1.9 1.1 6.1 3 11.6 3.1 6.3.2 11.5-5.5 11.5-5.5s-6.9-5-13.4-4.1c-1.9.3-4.1 1.3-6.1 2.4q3.75-4.35 7.2-9.3c1.9.7 6.4 1.9 12 1.1 6.1-.9 10.2-7.2 10.2-7.2s-7.5-3.6-13.6-1.7c-2 .6-4.1 2.2-5.9 3.8 2.1-3.4 4.1-7.1 5.8-10.8 2 .3 6.5.8 11.7-1 5.7-1.9 8.6-8.7 8.6-8.7s-7.9-2.2-13.4.7c-1.8.9-3.5 2.8-5 4.6 1.5-3.7 2.8-7.6 3.9-11.6 2.3-.3 6.7-.6 11.5-3.2"/><path d="M59.3 126.5h335.4v1H59.3zm152-56.3c3.7.2 5.8 2.4 5.8 5.8 0 4.4-3.4 7.4-10.1 7.4-3.3 0-5.4-.5-7.3-1.4v-4.6c2.4 1.3 4.9 1.9 7 1.9 3.5 0 5.5-1.3 5.5-3.6s-2.2-3.5-7-3.5v-3.3c3.9 0 6.1-1.7 6.1-4.1 0-1.6-1.3-2.7-3.1-2.7-2 0-3.8 1.4-3.8 3.5h-4.8c.2-4.2 3.8-7.1 8.8-7.1 4.7 0 7.7 2.5 7.7 6 .1 2.9-1.9 5.3-4.8 5.7m21.6.3c3.3.9 5.5 3.1 5.5 6.2 0 4.3-3.3 6.8-9.5 6.8-5.3 0-9-2.1-9-6.3 0-3 2-5.3 5.7-6.4v-.1c-3.4-1-4.8-3.3-4.8-5.9 0-3.7 3.4-6.4 8.7-6.4s8.2 2.6 8.2 6c0 3-1.4 4.7-4.8 6.1m.7 6.1c0-1.8-1.4-2.8-4.7-3.9-2.7 1-4.1 2.3-4.1 4 0 1.8 1.7 3.2 4.3 3.2 2.9-.1 4.5-1.6 4.5-3.3m-.7-11.7c0-1.9-1.5-2.7-3.7-2.7-2.1 0-3.6 1.2-3.6 2.9 0 1.6 1.3 2.6 3.7 3.6 2.3-1.2 3.6-2.1 3.6-3.8m11-3.7h2.8v2h-2.8v4.7c0 1.2.3 1.7 1.5 1.7.4 0 .9-.1 1.4-.3l-.1 2c-1 .4-1.7.5-2.4.5-2.1 0-3.1-1-3.1-2.7v-5.9h-1.4v-2h1.4v-2.1l2.8-.2zm7.2-4.9v5.1c0 .7 0 1.3-.2 2 .5-1.4 1.8-2.4 3.6-2.4 2.5 0 3.6 1.6 3.6 4v4.6h1.2v2h-5.1v-2h1.1v-4.3c0-1.3-.7-1.9-1.8-1.9-1.6 0-2.4 1.1-2.4 2.7v3.5h1.2v2h-5.1v-2h1.1V58.3h-1.6v-2zM111 146.8c0-2.2.2-4.1.7-5.6.5-1.6 1.1-2.9 2-3.9s1.9-1.8 3.1-2.3 2.6-.7 4.1-.7 2.9.2 4.1.7 2.2 1.2 3.1 2.3c.8 1 1.5 2.3 2 3.9s.7 3.5.7 5.7-.2 4.1-.7 5.7-1.1 2.9-2 3.9-1.9 1.8-3.1 2.3-2.6.7-4.1.7-2.9-.2-4.1-.7-2.2-1.2-3.1-2.3c-.8-1-1.5-2.3-2-3.9-.5-1.8-.7-3.6-.7-5.8m15.1 0c0-1.8-.1-3.3-.4-4.4-.2-1.2-.6-2.1-1.1-2.8s-1-1.1-1.6-1.4-1.4-.4-2.2-.4-1.5.1-2.1.4-1.2.7-1.6 1.4c-.5.7-.8 1.6-1.1 2.8s-.4 2.6-.4 4.4.1 3.3.4 4.4c.2 1.2.6 2.1 1.1 2.8s1 1.2 1.6 1.4c.6.3 1.3.4 2.1.4s1.5-.1 2.2-.4c.6-.3 1.2-.7 1.6-1.4.5-.7.8-1.6 1.1-2.8s.4-2.7.4-4.4m11.3 12c-.1 0-.2.1-.4.1-.1 0-.3.1-.5.1h-1.4c-.2 0-.3 0-.5-.1-.2 0-.3-.1-.4-.1v-16.9h9.6c.1.2.1.4.2.6s.1.4.1.6c0 .4-.1.9-.2 1.2h-6.5v5.1h5.8c.2.3.2.7.2 1.2s-.1.9-.2 1.3h-5.8zm12.6 0c-.1 0-.2.1-.4.1-.1 0-.3.1-.5.1h-1.4c-.2 0-.3 0-.5-.1-.2 0-.3-.1-.4-.1v-16.9h9.6c.1.2.1.4.2.6 0 .2.1.4.1.6 0 .4-.1.9-.2 1.2H150v5.1h5.8c.2.3.2.7.2 1.2s-.1.9-.2 1.3H150zm9.5-16.7c.1 0 .2-.1.4-.1.1 0 .3-.1.5-.1h1.4c.2 0 .4.1.5.1.2 0 .3.1.4.1v16.7c-.1 0-.2.1-.4.1-.1 0-.3.1-.5.1h-1.3c-.2 0-.3 0-.5-.1-.1 0-.3-.1-.4-.1zm6.2 8.3q0-4.35 1.8-6.6c1.8-2.25 3-2.2 5.4-2.2.7 0 1.3 0 1.8.1s.9.2 1.3.3.8.3 1.1.4c0 .5 0 .9-.2 1.3s-.4.7-.7 1c-.3-.1-.6-.2-.9-.2-.3-.1-.6-.1-.9-.2s-.7-.1-1.1-.1c-.6 0-1.2.1-1.7.3s-1 .5-1.4 1-.7 1.1-.9 1.9-.3 1.8-.3 3.1c0 1.2.1 2.3.3 3 .2.8.5 1.4.9 1.9s.8.8 1.4 1c.5.2 1.1.3 1.7.3.4 0 .8 0 1.2-.1.4 0 .7-.1 1-.2l.9-.3a2.7 2.7 0 0 1 .9 2.3c-.3.2-.7.3-1.1.4s-.8.2-1.4.3c-.5.1-1.2.1-1.9.1-2.4 0-4.2-.7-5.4-2.2s-1.8-3.7-1.8-6.6m14.1-8.3c.1 0 .2-.1.4-.1.1 0 .3-.1.5-.1h1.4c.2 0 .4.1.5.1.2 0 .3.1.4.1v16.7c-.1 0-.2.1-.4.1-.1 0-.3.1-.5.1h-1.3c-.2 0-.3 0-.5-.1-.1 0-.3-.1-.4-.1zm11 0c.2 0 .3-.1.5-.1s.4-.1.6-.1h1.5c.2 0 .4.1.6.1s.3.1.5.1l5.7 16.7c-.1 0-.2.1-.4.1-.1 0-.3.1-.5.1h-1.4c-.2 0-.3 0-.5-.1-.1 0-.3-.1-.4-.1l-1.3-3.8h-6.5l-1.3 3.8c-.1 0-.2.1-.4.1-.1 0-.3.1-.5.1h-1.2c-.2 0-.3 0-.5-.1-.1 0-.3-.1-.4-.1zm1.7 2.9c-.1.2-.1.5-.2.8-.1.2-.1.5-.2.8l-.3 1-1.7 4.8h4.8l-1.6-4.8c-.1-.4-.2-.7-.3-1s-.2-.6-.2-.8zm10-2.9c.1 0 .2-.1.4-.1.1 0 .3-.1.5-.1h1.4c.2 0 .4.1.5.1.2 0 .3.1.4.1v14.3h6.8c.1.2.1.4.2.6s.1.5.1.7 0 .4-.1.7c0 .2-.1.4-.2.7h-9.9zm19.6-.8c0-1.1.2-2 .5-2.9.4-.9.9-1.6 1.6-2.3q1.05-.9 2.7-1.5c1.1-.4 2.3-.5 3.8-.5 1.1 0 2 .1 2.9.2.8.1 1.6.2 2.1.3.7.2 1.3.3 1.8.5q0 .9-.3 1.8c-.3.9-.5 1.2-.9 1.6-.4-.1-.9-.3-1.5-.4-.5-.1-1-.2-1.6-.3s-1.3-.1-2-.1c-3.2 0-4.9 1.1-4.9 3.3 0 .5.2 1 .5 1.4s.8.7 1.3 1c.6.3 1.2.5 1.9.7s1.4.5 2.2.7c.8.3 1.5.6 2.2 1s1.4.8 2 1.4 1 1.2 1.4 2 .5 1.7.5 2.8c0 2.4-.7 4.2-2.2 5.4s-3.7 1.9-6.6 1.9c-1.2 0-2.2-.1-3.2-.2-.9-.2-1.7-.3-2.4-.5-.8-.2-1.5-.5-2-.7q0-.9.3-1.8c.3-.9.4-1.2.8-1.7.6.2 1.3.4 2 .5.6.1 1.3.3 2 .4s1.6.2 2.3.2c1.6 0 2.7-.3 3.4-.8.7-.6 1.1-1.4 1.1-2.5q0-.75-.3-1.2c-.2-.4-.4-.7-.7-.9-.3-.3-.7-.5-1.1-.7s-.9-.4-1.4-.6c-.9-.3-1.8-.6-2.8-.9q-1.5-.45-2.7-1.2c-1.2-.75-1.5-1.2-2.1-2s-.6-2-.6-3.4m29.5.6c.2.4.2.8.2 1.1 0 .5-.1.9-.2 1.3h-6.8v4.8h5.6c.1.2.1.4.2.6 0 .2.1.4.1.6 0 .5-.1.9-.2 1.3h-5.6v5h7c.1.2.1.4.2.6 0 .2.1.4.1.6 0 .5-.1.9-.2 1.3h-10.1V142h9.7zm3.4.2c.1 0 .2-.1.4-.1.1 0 .3-.1.5-.1h1.4c.2 0 .4.1.5.1.2 0 .3.1.4.1v14.3h6.8c.1.2.1.4.2.6s.1.5.1.7 0 .4-.1.7c0 .2-.1.4-.2.7h-10zm22.3-.2c.2.4.2.8.2 1.1 0 .5-.1.9-.2 1.3h-6.8v4.8h5.6c.1.2.1.4.2.6 0 .2.1.4.1.6 0 .5-.1.9-.2 1.3h-5.6v5h7c.1.2.1.4.2.6 0 .2.1.4.1.6 0 .5-.1.9-.2 1.3h-10.1V142h9.7zm2.3 8.5q0-4.35 1.8-6.6c1.2-1.5 3-2.2 5.4-2.2.7 0 1.3 0 1.8.1s.9.2 1.3.3.8.3 1.1.4c0 .5 0 .9-.2 1.3s-.4.7-.7 1c-.3-.1-.6-.2-.9-.2-.3-.1-.6-.1-.9-.2s-.7-.1-1.1-.1c-.6 0-1.2.1-1.7.3s-1 .5-1.4 1-.7 1.1-.9 1.9-.3 1.8-.3 3.1c0 1.2.1 2.3.3 3 .2.8.5 1.4.9 1.9s.8.8 1.4 1c.5.2 1.1.3 1.7.3.4 0 .8 0 1.2-.1.4 0 .7-.1 1-.2l.9-.3a2.7 2.7 0 0 1 .9 2.3c-.3.2-.7.3-1.1.4s-.8.2-1.4.3c-.5.1-1.2.1-1.9.1-2.4 0-4.2-.7-5.4-2.2s-1.8-3.7-1.8-6.6m24.6-8.5c0 .1.1.2.1.4 0 .1.1.3.1.4v1c0 .1-.1.3-.1.4s-.1.3-.1.4H300v14.3c-.1 0-.2.1-.4.1-.1 0-.3.1-.5.1h-1.3c-.2 0-.3 0-.5-.1-.1 0-.3-.1-.4-.1v-14.3h-4.3c0-.1-.1-.2-.1-.4-.1-.2-.1-.5-.1-.9s0-.7.1-1c0-.1.1-.3.1-.4h11.6zm2.7.2c.1 0 .2-.1.4-.1.1 0 .3-.1.5-.1h1.4c.2 0 .4.1.5.1.2 0 .3.1.4.1v16.7c-.1 0-.2.1-.4.1-.1 0-.3.1-.5.1h-1.3c-.2 0-.3 0-.5-.1-.1 0-.3-.1-.4-.1v-16.7zm6.2 8.3c0-1.5.2-2.8.5-4 .3-1.1.8-2 1.4-2.7s1.3-1.2 2.2-1.6a8.2 8.2 0 0 1 5.6 0c.8.3 1.6.9 2.2 1.6s1.1 1.6 1.4 2.7.5 2.4.5 4-.2 2.9-.5 4-.8 2-1.4 2.7-1.3 1.2-2.2 1.6a8.8 8.8 0 0 1-5.8 0c-.8-.3-1.6-.9-2.2-1.6s-1.1-1.6-1.4-2.7c-.2-1.1-.3-2.4-.3-4m10.5 0c0-1.3-.1-2.3-.3-3.1s-.4-1.5-.7-1.9c-.3-.5-.7-.8-1.2-1s-1-.3-1.5-.3-1.1.1-1.5.3-.8.5-1.2 1c-.3.5-.6 1.1-.8 1.9s-.3 1.9-.3 3.1.1 2.3.3 3.1.4 1.5.8 1.9c.3.5.7.8 1.2 1q.6.3 1.5.3c.9 0 1.1-.1 1.5-.3.5-.2.8-.5 1.2-1 .3-.5.6-1.1.7-1.9s.3-1.8.3-3.1m10.7-1.2-.6-1.2c-.2-.4-.4-.8-.5-1.1-.2-.4-.3-.8-.4-1.1h-.1c0 .4.1.8.1 1.3 0 .4.1.9.1 1.4v10.4c-.1 0-.2.1-.4.1-.1 0-.3.1-.5.1h-1.2c-.2 0-.3 0-.4-.1-.1 0-.3-.1-.3-.1v-16.7c.1 0 .3-.1.5-.1s.3-.1.6-.1h1.6c.2 0 .4.1.6.1s.3.1.5.1l4.9 9.5c.2.4.4.9.6 1.3s.4.8.5 1.1c.2.4.3.8.5 1.1h.1c0-.4-.1-.8-.1-1.3 0-.4-.1-.9-.1-1.4v-10.4c.1 0 .2-.1.3-.1s.3-.1.5-.1h1.2c.2 0 .3.1.4.1s.2.1.3.1v16.7c-.1 0-.3.1-.4.1s-.3.1-.6.1h-1.6c-.2 0-.4 0-.6-.1-.2 0-.3-.1-.5-.1z"/></svg>